<?xml version="1.0" encoding="UTF-8"?>
<svg id="FWC_-_COLOR_SYMBOL" data-name="FWC - COLOR SYMBOL" xmlns="http://www.w3.org/2000/svg" viewBox="0 0 576 669.97">
  <defs>
    <style>
      .cls-1 {
        stroke: #a4be3a;
      }

      .cls-1, .cls-2, .cls-3, .cls-4, .cls-5 {
        stroke-miterlimit: 10;
      }

      .cls-1, .cls-4 {
        stroke-width: 30px;
      }

      .cls-1, .cls-4, .cls-5 {
        fill: none;
      }

      .cls-2 {
        stroke-width: .25px;
      }

      .cls-2, .cls-6, .cls-3 {
        fill: #0e1429;
      }

      .cls-2, .cls-3, .cls-4, .cls-5 {
        stroke: #0e1429;
      }

      .cls-3, .cls-5 {
        stroke-width: 15px;
      }

      .cls-7 {
        fill: #a4be3a;
      }
    </style>
  </defs>
  <path class="cls-6" d="M267.65,113.6c-76.9,0-139.23,62.34-139.23,139.23,0,66.71,46.92,122.46,109.56,136.05-1.3-6.83-2.71-13.79-4.26-20.89-6.27-1-20.16-1.84-30.51-9.87-19.47-15.12-21.5-31.98-22.15-37.09,2.92-.1,24.19-3.42,39.27,12.88,3.42,3.7,6,7.35,7.95,10.82-.06-.23-.11-.46-.17-.69-2.38-9.47-4.87-18.66-7.46-27.58-6.75-.52-19.64-1.09-29.46-7.77-19.9-13.54-19.28-30.52-20.23-35.46,2.84-.28,20.92-.95,36.61,14,2.45,2.33,4.49,4.59,6.2,6.75-2.67-8.28-5.4-16.28-8.17-24.02-6.39-4.12-17.88-13.57-23.77-28.63-7.89-20.19,4.38-43.76,5.72-46.29,4.21,2.75,24.13,17.23,28.86,40.82,3.92,19.51-2.19,27.8-5.27,33.4,3.41,8.68,6.78,17.8,10.06,27.34-.4-5.8.17-12.48,2.75-19.53,7.45-20.36,25.67-27.59,28.34-28.6,1.34,4.85,6.65,26.12-5.2,47.07-6.09,10.77-14.31,17.2-19.52,20.57,2.02,6.51,3.99,13.2,5.88,20.05.76,2.76,1.5,5.5,2.22,8.23.25-4.63,1.2-9.94,3.35-15.83,7.45-20.36,27.88-25.38,30.55-26.39,1.34,4.85,5.87,20.79-5.98,41.73-6.04,10.68-17.53,16.62-23.12,19.97,2.11,9.1,3.96,17.94,5.59,26.51,7.03,1.09,14.23,1.66,21.56,1.66,76.9,0,139.23-62.34,139.23-139.23s-62.34-139.23-139.23-139.23Z"/>
  <polyline class="cls-5" points="259.83 71.93 100.81 71.93 100.81 361.98"/>
  <path class="cls-2" d="M93.44,361.98h14.75v13.02c-3.36-.47-7.05-1.3-10.98-2.7-1.31-.46-2.57-.96-3.77-1.49v-8.83Z"/>
  <path class="cls-1" d="M93.48,451.96c10.49.08,52.05,1.55,60.95,1.82,26.64.8,50.76-1.88,88.19-10.32,64.9-14.64,91.63-41.85,163.21-61.08,54.78-14.71,64.64-14.16,94.63-14.16"/>
  <path class="cls-1" d="M93.48,501.75c10.49.08,53.33-.4,62.23-.13,26.64.8,49.48-2.02,86.91-10.47,64.9-14.64,91.63-41.85,163.21-61.08,54.78-14.71,64.89-14.16,94.63-14.16"/>
  <path class="cls-4" d="M93.48,551.01c10.49.08,52.05-.27,60.95,0,28.64.86,47.6-1.14,88.19-10.3,64.9-14.64,91.63-41.85,163.21-61.08,54.78-14.71,63.4-14.16,94.63-14.16"/>
  <path class="cls-4" d="M93.48,596.13c10.49.08,59.79-.27,68.69,0,26.64.8,43.02-.53,80.45-8.97,64.9-14.64,91.63-41.85,163.21-61.08,54.78-14.71,64.65-14.57,94.63-14.57"/>
  <path class="cls-6" d="M500.47,547.64v63.56h-215.65c8.28-2.36,20.66-6.16,35.39-11.73,21.07-7.98,29.38-12.95,47.04-20.89,22.06-9.91,47.36-21.28,78.79-27.14,12.55-2.34,31.15-4.75,54.43-3.79Z"/>
  <path class="cls-6" d="M259.74,64.43h5.4c.14,3.56.1,4.34.85,8.54.2,1.13,1.42,5.4,1.65,6.46h-7.9v-15Z"/>
  <path class="cls-6" d="M306.91,79.44h.59v-15h-16.36c1.27,1.42,2.6,2.86,4,4.3,3.97,4.08,7.94,7.62,11.76,10.7Z"/>
  <path class="cls-7" d="M527.96,141.58c-8.13-10.34-21.36-15.1-33.77-12.17-16.78,3.98-22.89,19.88-23.34,21.1-2.01,6.91-5.86,16.87-13.56,26.95-4.33,5.67-8.83,10.02-12.76,13.27,2.11,4.03,6.45,11.01,14.4,17.13,8.22,6.33,16.37,8.71,20.86,9.68-3.89-.53-7.23-1.89-10.43-2.48-18.87-3.48-36.25-38.36-43.09-46.88-5.68-8.23-11.09-14.43-23.94-24.87-12.75-10.37-25.1-16.73-34.26-20.61-16.23-6.5-38.35-17.52-60.83-36.25-16.35-13.63-28.39-27.6-36.99-39.23-1.32,6.4-3.52,17.39.72,29.42,9.61,27.22,30.56,39.73,31.97,40.55-17.83-9.93-31.06-23.14-46.6-34.71-.6,7.54-.47,20.24,5.71,33.77,14.39,31.46,48.71,39.26,53.26,40.22-27.19-4.97-34.02-10.92-51.03-16.39,1.77,7.37,5.68,18.86,14.9,29.79,20.01,23.73,49.17,26.32,56.43,26.32-18.97.38-31.29-4-47-5.97,3.84,5.98,7.39,18.07,25.57,26.94,19.15,9.35,43.2,11.05,49.9,8.81-11.8,3.93-24.83,1.63-37.24,2.45,5.41,6.21,10.46,15.39,22.47,22,23.23,12.79,49.04,11.16,58.97,10.3-5.22,10.44-8.97,20.67-19.77,31.6-31.05,31.45-50.66,47.33-68.3,56.29-21.79,12.43-58.99,35.46-109.56,36.99-67.83,2.06-81.76,1.94-116.56-7.2,0,10.41-.62,30.35-.62,40.76,32.11,4.14,71.06,2.65,122.89-4.76,43.45-6.21,77.82-19.74,100.98-31.03,20.28-10.51,44.59-21.22,72.76-30.16,17.19-5.46,35.8-11.03,50.81-14.06,5.63-3.64,8.91-5.76,14.54-9.41,10.45-6.57,35.7-24.4,51.39-58.34,17.28-37.36,12.38-71.35,10.12-83.18-.1-4.6.33-14.3,6.01-24.58,7.51-13.57,19.32-19.35,23.34-21.1-6.12-.33-12.25-.66-18.37-.99Z"/>
  <path class="cls-3" d="M492.97,120.1v-55.66s0,55.66,0,55.66Z"/>
  <line class="cls-5" x1="492.97" y1="71.93" x2="307.5" y2="71.93"/>
  <path class="cls-6" d="M500.46,124.57c-3.12.06-7.35.59-11.82,2.64-1.16.53-2.21,1.11-3.16,1.7v-9.56h14.98v5.22Z"/>
  <path class="cls-3" d="M492.98,339.97l.02-22.02-.02,22.02Z"/>
  <path class="cls-6" d="M500.49,346.53c-3.5-.12-7.07-.19-10.71-.21-1.44,0-2.87,0-4.28,0v-6.35h14.99v6.56Z"/>
  <path class="cls-6" d="M485.66,314.32c2.08-2.37,4.19-4.91,6.32-7.62,3.19-4.08,6.02-8.06,8.52-11.87v23.73h-15c.06-1.41.11-2.83.17-4.24Z"/>
</svg>